<?xml version="1.0" encoding="UTF-8"?>
<svg xmlns="http://www.w3.org/2000/svg" width="1240" height="650" viewBox="0 0 1240 650" role="img" aria-labelledby="title desc">
  <title id="title">Radeon fixed-pipeline scaling</title>
  <desc id="desc">Measured throughput for the fixed r5 nominal deployed simulation pipeline on one AMD Radeon GPU.</desc>
  <rect width="1240" height="650" fill="#0f151b"/>
  <style>
    text { font-family: Inter, ui-sans-serif, system-ui, sans-serif; }
  </style>
  <text x="50" y="56" font-size="24" font-weight="700" fill="#eef3f7" text-anchor="start">ONE RADEON · FIXED R5 NOMINAL DEPLOYED PIPELINE</text>
  <text x="50" y="86" font-size="15" font-weight="400" fill="#9eabb5" text-anchor="start">2,227,200 measured transitions · three measured runs per environment count</text>
  <line x1="120" y1="480" x2="1140" y2="480" stroke="#36434e"/>
  <line x1="120" y1="150" x2="120" y2="480" stroke="#36434e"/>
  <line x1="120" y1="480.0" x2="1140" y2="480.0" stroke="#36434e" stroke-opacity="0.45"/>
  <text x="106" y="485.0" font-size="12" font-weight="400" fill="#9eabb5" text-anchor="end">0k</text>
  <line x1="120" y1="397.5" x2="1140" y2="397.5" stroke="#36434e" stroke-opacity="0.45"/>
  <text x="106" y="402.5" font-size="12" font-weight="400" fill="#9eabb5" text-anchor="end">19k</text>
  <line x1="120" y1="315.0" x2="1140" y2="315.0" stroke="#36434e" stroke-opacity="0.45"/>
  <text x="106" y="320.0" font-size="12" font-weight="400" fill="#9eabb5" text-anchor="end">37k</text>
  <line x1="120" y1="232.5" x2="1140" y2="232.5" stroke="#36434e" stroke-opacity="0.45"/>
  <text x="106" y="237.5" font-size="12" font-weight="400" fill="#9eabb5" text-anchor="end">56k</text>
  <line x1="120" y1="150.0" x2="1140" y2="150.0" stroke="#36434e" stroke-opacity="0.45"/>
  <text x="106" y="155.0" font-size="12" font-weight="400" fill="#9eabb5" text-anchor="end">74k</text>
  <rect x="204.0" y="459.40976358656667" width="150" height="20.590236413433306" rx="8" fill="#59a5f5"/>
  <text x="279.0" y="447.40976358656667" font-size="14" font-weight="700" fill="#eef3f7" text-anchor="middle">4,632.6</text>
  <text x="279.0" y="508" font-size="14" font-weight="700" fill="#eef3f7" text-anchor="middle">32 envs</text>
  <text x="279.0" y="530" font-size="11" font-weight="400" fill="#9eabb5" text-anchor="middle">GPU mean 77.3544%</text>
  <rect x="438.0" y="398.42095218092226" width="150" height="81.57904781907773" rx="8" fill="#59a5f5"/>
  <text x="513.0" y="386.42095218092226" font-size="14" font-weight="700" fill="#eef3f7" text-anchor="middle">18,354.4</text>
  <text x="513.0" y="508" font-size="14" font-weight="700" fill="#eef3f7" text-anchor="middle">128 envs</text>
  <text x="513.0" y="530" font-size="11" font-weight="400" fill="#9eabb5" text-anchor="middle">GPU mean 76.2593%</text>
  <rect x="672.0" y="318.29002616450475" width="150" height="161.70997383549525" rx="8" fill="#59a5f5"/>
  <text x="747.0" y="306.29002616450475" font-size="14" font-weight="700" fill="#eef3f7" text-anchor="middle">36,383.0</text>
  <text x="747.0" y="508" font-size="14" font-weight="700" fill="#eef3f7" text-anchor="middle">256 envs</text>
  <text x="747.0" y="530" font-size="11" font-weight="400" fill="#9eabb5" text-anchor="middle">GPU mean 77.0864%</text>
  <rect x="906.0" y="150.0" width="150" height="330.0" rx="8" fill="#59a5f5"/>
  <text x="981.0" y="138.0" font-size="14" font-weight="700" fill="#eef3f7" text-anchor="middle">74,246.5</text>
  <text x="981.0" y="508" font-size="14" font-weight="700" fill="#eef3f7" text-anchor="middle">512 envs</text>
  <text x="981.0" y="530" font-size="11" font-weight="400" fill="#9eabb5" text-anchor="middle">GPU mean 78.4684%</text>
  <rect x="50" y="548" width="220" height="62" rx="8" fill="#18212a" stroke="#36434e"/>
  <text x="62" y="570" font-size="11" font-weight="700" fill="#9eabb5" text-anchor="start">512 / 32 SPEEDUP</text>
  <text x="62" y="595" font-size="14" font-weight="700" fill="#eef3f7" text-anchor="start">16.027013647337444x</text>
  <rect x="286" y="548" width="220" height="62" rx="8" fill="#18212a" stroke="#36434e"/>
  <text x="298" y="570" font-size="11" font-weight="700" fill="#9eabb5" text-anchor="start">PARALLEL EFFICIENCY</text>
  <text x="298" y="595" font-size="14" font-weight="700" fill="#eef3f7" text-anchor="start">1.001688352958590</text>
  <rect x="522" y="548" width="220" height="62" rx="8" fill="#18212a" stroke="#36434e"/>
  <text x="534" y="570" font-size="11" font-weight="700" fill="#9eabb5" text-anchor="start">MAX CV</text>
  <text x="534" y="595" font-size="14" font-weight="700" fill="#eef3f7" text-anchor="start">0.0033317633931520</text>
  <rect x="758" y="548" width="220" height="62" rx="8" fill="#18212a" stroke="#36434e"/>
  <text x="770" y="570" font-size="11" font-weight="700" fill="#9eabb5" text-anchor="start">MAX GPU</text>
  <text x="770" y="595" font-size="14" font-weight="700" fill="#eef3f7" text-anchor="start">86%</text>
  <rect x="994" y="548" width="220" height="62" rx="8" fill="#18212a" stroke="#36434e"/>
  <text x="1006" y="570" font-size="11" font-weight="700" fill="#9eabb5" text-anchor="start">MAX VRAM</text>
  <text x="1006" y="595" font-size="14" font-weight="700" fill="#eef3f7" text-anchor="start">962,785,280 B</text>
  <text x="50" y="634" font-size="13" font-weight="400" fill="#9eabb5" text-anchor="start">Throughput evidence only: no scientific superiority, sim-to-real, safety, or real-flight claim.</text>
</svg>
